<mxfile host="app.diagrams.net" modified="2024-04-24T08:48:05.041Z" agent="Mozilla/5.0 (Windows NT 10.0; Win64; x64) AppleWebKit/537.36 (KHTML, like Gecko) Chrome/124.0.0.0 Safari/537.36" etag="h3l3dSbbflAVprbKgBr4" version="24.2.8" type="device">
  <diagram name="Pagina-1" id="Qpr59WzOP5rxZQCN49R_">
    <mxGraphModel dx="603" dy="217" grid="1" gridSize="10" guides="1" tooltips="1" connect="1" arrows="1" fold="1" page="1" pageScale="1" pageWidth="1500" pageHeight="500" math="0" shadow="0">
      <root>
        <mxCell id="0" />
        <mxCell id="1" parent="0" />
        <mxCell id="JQ5oiBH-jkJCC2GpUcqr-1" value="&quot;Is this a cat?&quot;" style="text;html=1;align=center;verticalAlign=middle;whiteSpace=wrap;rounded=0;" vertex="1" parent="1">
          <mxGeometry x="720" y="220" width="160" height="30" as="geometry" />
        </mxCell>
        <mxCell id="JQ5oiBH-jkJCC2GpUcqr-2" value="" style="shape=image;verticalLabelPosition=bottom;labelBackgroundColor=default;verticalAlign=top;aspect=fixed;imageAspect=0;image=https://cdn4.iconfinder.com/data/icons/animals-57/500/cat_animal_-512.png;" vertex="1" parent="1">
          <mxGeometry x="770" y="250" width="60" height="60" as="geometry" />
        </mxCell>
        <mxCell id="JQ5oiBH-jkJCC2GpUcqr-3" value="Pre-trained model" style="rounded=1;whiteSpace=wrap;html=1;fillColor=#f8cecc;strokeColor=default;strokeWidth=2;" vertex="1" parent="1">
          <mxGeometry x="740" y="330" width="120" height="30" as="geometry" />
        </mxCell>
        <mxCell id="JQ5oiBH-jkJCC2GpUcqr-5" value="&quot;Is this a cat?&quot;" style="text;html=1;align=center;verticalAlign=middle;whiteSpace=wrap;rounded=0;" vertex="1" parent="1">
          <mxGeometry x="900" y="335" width="160" height="30" as="geometry" />
        </mxCell>
        <mxCell id="JQ5oiBH-jkJCC2GpUcqr-6" value="" style="shape=image;verticalLabelPosition=bottom;labelBackgroundColor=default;verticalAlign=top;aspect=fixed;imageAspect=0;image=https://cdn4.iconfinder.com/data/icons/animals-57/500/cat_animal_-512.png;" vertex="1" parent="1">
          <mxGeometry x="1020" y="320" width="60" height="60" as="geometry" />
        </mxCell>
        <mxCell id="JQ5oiBH-jkJCC2GpUcqr-7" value="Pre-trained model" style="rounded=1;whiteSpace=wrap;html=1;fillColor=#f8cecc;strokeColor=default;strokeWidth=2;" vertex="1" parent="1">
          <mxGeometry x="950" y="395" width="120" height="30" as="geometry" />
        </mxCell>
        <mxCell id="JQ5oiBH-jkJCC2GpUcqr-11" value="" style="shape=image;verticalLabelPosition=bottom;labelBackgroundColor=default;verticalAlign=top;aspect=fixed;imageAspect=0;image=https://cdn-icons-png.freepik.com/512/812/812211.png;" vertex="1" parent="1">
          <mxGeometry x="934.52" y="220" width="50" height="50" as="geometry" />
        </mxCell>
        <mxCell id="JQ5oiBH-jkJCC2GpUcqr-12" value="&quot;This is a cat.&quot;" style="text;html=1;align=center;verticalAlign=middle;whiteSpace=wrap;rounded=0;" vertex="1" parent="1">
          <mxGeometry x="984.52" y="230" width="110" height="30" as="geometry" />
        </mxCell>
        <mxCell id="JQ5oiBH-jkJCC2GpUcqr-14" value="&quot;This is a racoon.&quot;" style="text;html=1;align=center;verticalAlign=middle;whiteSpace=wrap;rounded=0;" vertex="1" parent="1">
          <mxGeometry x="990" y="280" width="110" height="30" as="geometry" />
        </mxCell>
        <mxCell id="JQ5oiBH-jkJCC2GpUcqr-16" value="Fine-tuned model" style="rounded=1;whiteSpace=wrap;html=1;fillColor=#f8cecc;strokeColor=default;strokeWidth=2;" vertex="1" parent="1">
          <mxGeometry x="1199" y="394" width="120" height="30" as="geometry" />
        </mxCell>
        <mxCell id="JQ5oiBH-jkJCC2GpUcqr-33" style="edgeStyle=orthogonalEdgeStyle;rounded=0;orthogonalLoop=1;jettySize=auto;html=1;exitX=0.5;exitY=1;exitDx=0;exitDy=0;entryX=0.5;entryY=0;entryDx=0;entryDy=0;" edge="1" parent="1" source="JQ5oiBH-jkJCC2GpUcqr-17" target="JQ5oiBH-jkJCC2GpUcqr-18">
          <mxGeometry relative="1" as="geometry" />
        </mxCell>
        <mxCell id="JQ5oiBH-jkJCC2GpUcqr-17" value="Pre-trained model" style="rounded=1;whiteSpace=wrap;html=1;fillColor=#f8cecc;strokeColor=default;strokeWidth=2;" vertex="1" parent="1">
          <mxGeometry x="1199" y="224" width="120" height="30" as="geometry" />
        </mxCell>
        <mxCell id="JQ5oiBH-jkJCC2GpUcqr-34" style="edgeStyle=orthogonalEdgeStyle;rounded=0;orthogonalLoop=1;jettySize=auto;html=1;exitX=0.5;exitY=1;exitDx=0;exitDy=0;entryX=0.5;entryY=0;entryDx=0;entryDy=0;" edge="1" parent="1" source="JQ5oiBH-jkJCC2GpUcqr-18" target="JQ5oiBH-jkJCC2GpUcqr-16">
          <mxGeometry relative="1" as="geometry" />
        </mxCell>
        <mxCell id="JQ5oiBH-jkJCC2GpUcqr-18" value="Fine-tuning" style="rounded=1;whiteSpace=wrap;html=1;fillColor=#dae8fc;strokeColor=default;strokeWidth=2;" vertex="1" parent="1">
          <mxGeometry x="1199" y="274" width="120" height="25" as="geometry" />
        </mxCell>
        <mxCell id="JQ5oiBH-jkJCC2GpUcqr-19" value="&lt;b&gt;Zero-shot learning&lt;/b&gt;" style="text;html=1;align=center;verticalAlign=middle;whiteSpace=wrap;rounded=0;" vertex="1" parent="1">
          <mxGeometry x="720" y="170" width="160" height="30" as="geometry" />
        </mxCell>
        <mxCell id="JQ5oiBH-jkJCC2GpUcqr-20" value="&lt;b&gt;Few-shot prompting&lt;/b&gt;" style="text;html=1;align=center;verticalAlign=middle;whiteSpace=wrap;rounded=0;" vertex="1" parent="1">
          <mxGeometry x="920" y="170" width="160" height="30" as="geometry" />
        </mxCell>
        <mxCell id="JQ5oiBH-jkJCC2GpUcqr-21" value="&lt;b&gt;Fine-tuning&lt;/b&gt;" style="text;html=1;align=center;verticalAlign=middle;whiteSpace=wrap;rounded=0;" vertex="1" parent="1">
          <mxGeometry x="1170" y="170" width="160" height="30" as="geometry" />
        </mxCell>
        <mxCell id="JQ5oiBH-jkJCC2GpUcqr-42" style="edgeStyle=orthogonalEdgeStyle;rounded=0;orthogonalLoop=1;jettySize=auto;html=1;exitX=0;exitY=0.5;exitDx=0;exitDy=0;" edge="1" parent="1" source="JQ5oiBH-jkJCC2GpUcqr-23">
          <mxGeometry relative="1" as="geometry">
            <mxPoint x="1319" y="286" as="targetPoint" />
            <Array as="points">
              <mxPoint x="1319" y="286" />
            </Array>
          </mxGeometry>
        </mxCell>
        <mxCell id="JQ5oiBH-jkJCC2GpUcqr-23" value="" style="rounded=1;whiteSpace=wrap;html=1;strokeWidth=2;" vertex="1" parent="1">
          <mxGeometry x="1339" y="256" width="120" height="60" as="geometry" />
        </mxCell>
        <mxCell id="JQ5oiBH-jkJCC2GpUcqr-24" value="Dataset" style="text;html=1;align=right;verticalAlign=middle;whiteSpace=wrap;rounded=0;" vertex="1" parent="1">
          <mxGeometry x="1409" y="231" width="50" height="30" as="geometry" />
        </mxCell>
        <mxCell id="JQ5oiBH-jkJCC2GpUcqr-25" value="" style="shape=image;verticalLabelPosition=bottom;labelBackgroundColor=default;verticalAlign=top;aspect=fixed;imageAspect=0;image=https://cdn4.iconfinder.com/data/icons/animals-57/500/cat_animal_-512.png;" vertex="1" parent="1">
          <mxGeometry x="1409" y="264" width="30" height="30" as="geometry" />
        </mxCell>
        <mxCell id="JQ5oiBH-jkJCC2GpUcqr-27" value="&quot;cat&quot;" style="text;html=1;align=center;verticalAlign=middle;whiteSpace=wrap;rounded=0;fontSize=9;" vertex="1" parent="1">
          <mxGeometry x="1404" y="286" width="40" height="30" as="geometry" />
        </mxCell>
        <mxCell id="JQ5oiBH-jkJCC2GpUcqr-28" value="&lt;font style=&quot;font-size: 9px;&quot;&gt;&quot;racoon&quot;&lt;/font&gt;" style="text;html=1;align=center;verticalAlign=middle;whiteSpace=wrap;rounded=0;" vertex="1" parent="1">
          <mxGeometry x="1354.01" y="286" width="50" height="30" as="geometry" />
        </mxCell>
        <mxCell id="JQ5oiBH-jkJCC2GpUcqr-31" value="&quot;Is this a cat?&quot;" style="text;html=1;align=center;verticalAlign=middle;whiteSpace=wrap;rounded=0;" vertex="1" parent="1">
          <mxGeometry x="1169" y="318" width="80" height="30" as="geometry" />
        </mxCell>
        <mxCell id="JQ5oiBH-jkJCC2GpUcqr-32" value="" style="shape=image;verticalLabelPosition=bottom;labelBackgroundColor=default;verticalAlign=top;aspect=fixed;imageAspect=0;image=https://cdn4.iconfinder.com/data/icons/animals-57/500/cat_animal_-512.png;" vertex="1" parent="1">
          <mxGeometry x="1209" y="344" width="40" height="40" as="geometry" />
        </mxCell>
        <mxCell id="JQ5oiBH-jkJCC2GpUcqr-38" value="" style="endArrow=none;html=1;rounded=0;strokeWidth=2;" edge="1" parent="1">
          <mxGeometry width="50" height="50" relative="1" as="geometry">
            <mxPoint x="900" y="425" as="sourcePoint" />
            <mxPoint x="900" y="175" as="targetPoint" />
          </mxGeometry>
        </mxCell>
        <mxCell id="JQ5oiBH-jkJCC2GpUcqr-39" value="" style="endArrow=none;html=1;rounded=0;strokeWidth=2;" edge="1" parent="1">
          <mxGeometry width="50" height="50" relative="1" as="geometry">
            <mxPoint x="1140" y="425" as="sourcePoint" />
            <mxPoint x="1140" y="175" as="targetPoint" />
          </mxGeometry>
        </mxCell>
        <mxCell id="JQ5oiBH-jkJCC2GpUcqr-40" value="" style="shape=image;verticalLabelPosition=bottom;labelBackgroundColor=default;verticalAlign=top;aspect=fixed;imageAspect=0;image=https://cdn2.iconfinder.com/data/icons/mammals-ii/300/07-512.png;" vertex="1" parent="1">
          <mxGeometry x="930" y="265" width="60" height="60" as="geometry" />
        </mxCell>
        <mxCell id="JQ5oiBH-jkJCC2GpUcqr-41" value="" style="shape=image;verticalLabelPosition=bottom;labelBackgroundColor=default;verticalAlign=top;aspect=fixed;imageAspect=0;image=https://cdn2.iconfinder.com/data/icons/mammals-ii/300/07-512.png;" vertex="1" parent="1">
          <mxGeometry x="1362" y="261" width="40" height="40" as="geometry" />
        </mxCell>
      </root>
    </mxGraphModel>
  </diagram>
</mxfile>
